<svg version="1.1" id="Layer_1" xmlns="http://www.w3.org/2000/svg" xmlns:xlink="http://www.w3.org/1999/xlink" x="0px" y="0px"
	 width="100%" viewBox="0 0 320 218" enable-background="new 0 0 320 218" xml:space="preserve">
<path fill="#FFFDFD" opacity="1.000000" stroke="none" 
	d="
M236.000000,219.000000 
	C157.333344,219.000000 79.166687,219.000000 1.000021,219.000000 
	C1.000014,146.333359 1.000014,73.666702 1.000007,1.000041 
	C107.666634,1.000027 214.333267,1.000027 320.999939,1.000013 
	C320.999939,73.666626 320.999939,146.333252 320.999969,218.999939 
	C292.833344,219.000000 264.666656,219.000000 236.000000,219.000000 
M196.530273,95.654091 
	C197.048172,94.777489 197.566071,93.900879 198.465515,92.502335 
	C200.649841,90.348900 202.834183,88.195473 205.617523,85.747330 
	C208.731216,82.464668 211.844910,79.182007 215.581451,75.662460 
	C217.774796,73.249550 219.968124,70.836647 222.531906,68.016228 
	C219.771286,65.415291 217.399155,63.180378 214.727234,60.354313 
	C211.520477,57.163357 208.313721,53.972397 204.966400,50.129135 
	C202.311050,47.418987 199.655716,44.708836 196.700699,41.405731 
	C191.928726,38.606468 191.705704,43.571323 189.065491,45.757896 
	C184.912216,49.819942 180.654388,53.784206 176.690414,58.023258 
	C175.858170,58.913250 175.394348,61.264946 175.971512,62.176315 
	C180.043182,68.605553 184.431152,74.834457 188.913345,81.812447 
	C188.940216,83.281944 188.967087,84.751450 188.461700,85.813332 
	C186.994095,84.497803 185.526489,83.182266 183.769699,81.271744 
	C180.824173,78.245270 177.878662,75.218788 174.690170,71.561775 
	C172.126556,69.041756 169.562943,66.521736 166.723465,63.397217 
	C164.181854,60.853943 161.640244,58.310669 158.790390,55.188358 
	C155.850311,52.163132 152.910233,49.137905 149.692215,45.489246 
	C148.318863,44.051270 147.121979,42.339119 145.496475,41.292934 
	C144.703842,40.782799 143.111771,41.514816 141.243729,41.933704 
	C137.485687,45.950928 133.727631,49.968151 129.379089,54.286678 
	C124.881111,58.878487 120.383133,63.470295 114.855827,69.112900 
	C120.840599,74.627502 126.417007,79.765823 132.554794,85.289871 
	C135.698349,88.544746 138.841888,91.799629 142.224579,95.674904 
	C144.393814,97.662712 146.563049,99.650528 148.838730,102.283531 
	C151.282379,104.851044 153.726028,107.418556 156.394287,110.595222 
	C159.498611,113.581116 162.602936,116.567009 165.917755,120.147873 
	C166.888519,121.168274 167.859283,122.188667 169.212173,123.610733 
	C171.393250,121.224854 173.237930,119.206947 175.669724,116.853638 
	C178.447662,113.905304 181.225601,110.956963 184.606262,107.725601 
	C188.379822,103.770164 192.153397,99.814720 196.530273,95.654091 
M178.671997,43.823051 
	C180.502213,42.733631 182.332428,41.644211 184.920654,40.103596 
	C181.357742,37.293205 179.747238,36.022850 177.938507,34.123718 
	C175.618454,31.752817 173.298416,29.381918 170.749405,26.433830 
	C169.736221,26.567621 168.723022,26.701414 167.161346,27.192322 
	C164.006561,30.375078 160.659439,33.398575 157.812988,36.836597 
	C156.947006,37.882545 156.702682,40.713497 157.474777,41.626068 
	C160.865433,45.633652 164.732697,49.237991 169.925842,54.509968 
	C172.823212,50.816067 175.447037,47.470898 178.671997,43.823051 
M141.524902,154.561493 
	C142.756638,158.684448 144.066345,162.786255 145.193420,166.937622 
	C145.979660,169.833572 147.557220,170.673553 150.685928,169.270828 
	C150.685928,159.493729 150.740280,149.575882 150.590515,139.661118 
	C150.577469,138.797791 149.220627,137.954773 148.487976,137.102310 
	C147.828461,138.030472 146.632385,138.941162 146.601501,139.889801 
	C146.461533,144.189087 146.650467,148.499084 146.176071,152.874557 
	C145.815201,152.890274 145.454346,152.905991 144.967697,152.144897 
	C143.839798,148.326294 142.561874,144.543976 141.627426,140.678604 
	C140.743240,137.021225 138.743195,136.264175 135.040100,137.767807 
	C135.040100,147.615219 134.985931,157.545639 135.138901,167.472855 
	C135.151672,168.301666 136.560425,169.108963 137.320587,169.926254 
	C137.920761,168.964447 138.989944,168.026367 139.040024,167.036728 
	C139.257950,162.729568 139.179260,158.407394 139.858215,154.015717 
	C140.291367,153.975098 140.724503,153.934479 141.524902,154.561493 
M276.720551,166.023743 
	C277.480988,167.316727 278.241455,168.609711 279.001923,169.902679 
	C279.574402,168.573761 280.590149,167.261459 280.640686,165.912964 
	C280.834747,160.735916 280.719299,155.547241 280.719299,150.362915 
	C283.491974,155.696365 285.277557,161.158829 286.831360,166.686462 
	C287.603180,169.432159 288.834442,170.727448 292.097626,169.321823 
	C292.097626,159.600311 292.074158,149.795258 292.110382,139.990433 
	C292.123016,136.573151 290.423706,136.700089 287.641907,137.808640 
	C287.641907,142.340012 287.641907,146.792908 287.641907,151.376907 
	C282.346710,147.814468 286.971893,137.366165 276.719177,137.041214 
	C276.719177,146.835922 276.719177,155.978561 276.720551,166.023743 
M208.382645,168.137375 
	C206.954941,157.840637 205.527222,147.543900 204.064682,136.995926 
	C201.052811,136.995926 198.541962,136.747620 196.133759,137.135910 
	C195.333191,137.264984 194.285965,139.008575 194.246429,140.048096 
	C194.168015,142.110428 195.150101,144.246292 194.920609,146.263809 
	C194.043686,153.973602 192.859558,161.648438 191.792877,169.316696 
	C195.445160,170.899277 195.783890,168.881897 196.382080,166.320190 
	C196.784439,164.597244 198.023911,162.231003 199.435135,161.747772 
	C202.948868,160.544540 203.746872,163.162476 204.127029,166.148651 
	C204.638351,170.165115 204.798767,170.144699 208.382645,168.137375 
M46.947796,165.151123 
	C49.329777,169.099014 52.814625,171.510559 57.263603,169.671906 
	C61.483162,167.928085 62.681595,163.977249 62.366898,159.364212 
	C62.029202,154.414078 62.351681,149.422043 62.273991,144.450058 
	C62.204781,140.020844 58.789604,136.569901 54.592346,136.510147 
	C50.117085,136.446426 46.475494,139.913132 46.444008,144.537415 
	C46.398884,151.163574 46.534180,157.790970 46.947796,165.151123 
M259.597137,142.932709 
	C258.372589,151.784790 257.148041,160.636871 255.923508,169.488968 
	C256.417969,169.801514 256.912445,170.114059 257.406921,170.426620 
	C258.370605,169.414108 259.665253,168.556335 260.226593,167.355713 
	C261.278412,165.106140 259.788330,161.429657 264.479431,161.481750 
	C269.303314,161.535324 267.230133,165.477203 268.499481,167.517746 
	C269.203247,168.649063 270.686279,169.295609 271.818085,170.160645 
	C272.136810,169.763321 272.455566,169.365997 272.774292,168.968658 
	C271.244324,158.351196 269.714355,147.733719 268.218811,137.355225 
	C265.160248,137.355225 262.921844,137.355225 260.581482,137.355225 
	C260.257568,139.162750 259.995911,140.622971 259.597137,142.932709 
M116.692055,158.059692 
	C117.296715,161.952942 117.901382,165.846207 118.490799,169.641266 
	C121.327499,169.641266 123.723602,169.641266 126.313210,169.641266 
	C127.879333,158.693695 129.398514,148.074295 130.917679,137.454910 
	C130.348770,137.146957 129.779846,136.838989 129.210922,136.531036 
	C128.304932,137.693375 126.841080,138.745331 126.585609,140.036392 
	C125.176537,147.157608 124.062408,154.337189 122.847137,161.496765 
	C121.475121,160.318558 121.103386,159.129333 120.916679,157.911728 
	C120.009682,151.996521 119.291878,146.047104 118.171509,140.173813 
	C117.915939,138.834030 116.330276,137.747986 115.356789,136.545151 
	C114.840401,136.881897 114.324013,137.218658 113.807632,137.555405 
	C114.722198,144.104034 115.636772,150.652679 116.692055,158.059692 
M311.491180,140.247192 
	C309.780365,139.084656 308.217407,137.408920 306.328461,136.864700 
	C302.193909,135.673538 299.182770,138.494141 298.196320,141.697678 
	C297.186554,144.976898 296.062317,149.260376 300.267029,151.992935 
	C302.350464,153.346924 304.760101,154.548904 306.199310,156.444443 
	C307.601532,158.291199 308.326447,160.898239 308.558472,163.249466 
	C308.636108,164.036194 306.278625,165.063202 305.034271,165.980377 
	C303.819489,164.283142 302.667755,162.535202 301.361969,160.911133 
	C300.753967,160.154953 299.847107,159.639053 299.075714,159.014252 
	C298.546844,159.716705 297.708801,160.352615 297.540894,161.132751 
	C296.668457,165.186768 300.064209,169.502075 304.045471,170.054108 
	C308.190338,170.628815 311.297272,168.651062 312.348206,165.296738 
	C313.500397,161.619308 315.263428,157.057159 310.261658,154.090164 
	C308.128723,152.824905 305.873505,151.484360 304.301300,149.642471 
	C302.994812,148.111862 302.218719,145.839020 301.999451,143.809418 
	C301.909180,142.973846 303.892334,141.914307 304.932404,140.956650 
	C306.224213,142.392334 307.484436,143.858383 308.822144,145.249908 
	C309.421082,145.872955 310.457428,146.935730 310.802917,146.770370 
	C311.624023,146.377335 312.599609,145.421402 312.692230,144.600327 
	C312.830017,143.379547 312.259552,142.078857 311.491180,140.247192 
M67.777000,165.961578 
	C67.696678,168.472641 67.694885,170.902344 71.959435,169.325455 
	C71.959435,166.249268 71.959435,163.017456 71.959435,159.888382 
	C81.978142,158.204910 85.062820,153.206345 82.834900,143.053802 
	C81.667412,137.733627 75.912888,135.664795 67.776443,137.864594 
	C67.776443,146.861649 67.776443,155.959595 67.777000,165.961578 
M243.682892,141.699005 
	C242.630356,139.391129 242.711472,135.627701 238.304260,137.452011 
	C238.304260,138.027847 238.186295,138.538498 238.321640,138.969620 
	C241.276672,148.381912 246.283188,157.303253 245.052017,167.729858 
	C244.975937,168.374268 246.281265,169.181793 246.943893,169.913422 
	C247.644028,168.869019 249.016983,167.769348 248.936447,166.789078 
	C248.360992,159.783508 250.253983,153.342560 252.785767,146.963715 
	C253.987793,143.935196 254.877274,140.782623 255.908340,137.686249 
	C255.393402,137.368347 254.878479,137.050430 254.363541,136.732513 
	C248.314865,138.473602 250.860107,146.410767 246.458847,150.159027 
	C245.524506,147.365311 244.707138,144.921326 243.682892,141.699005 
M32.542675,136.944534 
	C30.121407,136.944534 27.700138,136.944534 25.400703,136.944534 
	C25.400703,139.745911 25.400703,141.802872 25.400703,145.231720 
	C27.650341,143.183075 28.974270,141.977448 31.313698,139.847046 
	C31.313698,150.478577 31.313698,159.940948 31.313698,169.133804 
	C34.871078,170.668594 35.959003,169.676697 35.926346,166.686493 
	C35.848354,159.545197 35.877354,152.402252 35.927185,145.260422 
	C35.937489,143.783493 36.225765,142.308502 36.409431,140.616013 
	C38.732037,141.953232 40.312870,142.863388 41.893700,143.773529 
	C42.184193,141.637283 42.474686,139.501038 42.822323,136.944534 
	C39.110435,136.944534 36.305984,136.944534 32.542675,136.944534 
M167.175873,151.927765 
	C168.826599,147.141968 170.477341,142.356186 172.565536,136.302078 
	C164.323425,138.456833 167.180984,146.398361 162.585693,149.982086 
	C161.660736,147.223801 160.890259,144.598892 159.898041,142.060669 
	C158.933380,139.592972 158.997421,135.610504 154.005981,137.626678 
	C157.144089,147.703751 162.356964,157.161453 161.108292,168.088287 
	C161.049545,168.602341 162.592987,169.299469 163.390274,169.911331 
	C163.948395,169.068207 164.866150,168.279999 165.004654,167.372833 
	C165.749374,162.494934 166.300339,157.587448 167.175873,151.927765 
M120.125496,84.547699 
	C117.219604,81.274574 114.313705,78.001457 111.178818,74.470398 
	C107.600075,78.209221 104.655602,81.285408 101.743698,84.327568 
	C105.099579,87.935173 108.095390,91.155701 111.527802,94.845573 
	C114.550903,91.429024 117.276215,88.349022 120.125496,84.547699 
M98.205681,169.961319 
	C99.434059,169.288132 100.662445,168.614944 101.890823,167.941757 
	C100.627785,167.281250 99.426857,166.301056 98.086105,166.040558 
	C96.379852,165.709030 94.560394,165.960236 92.369659,165.960236 
	C92.369659,156.024933 92.369659,146.759232 92.369659,135.989243 
	C90.336327,137.412125 88.383919,138.130264 88.368950,138.886734 
	C88.166359,149.122818 88.232933,159.364197 88.232933,169.961823 
	C91.693581,169.961823 94.493958,169.961823 98.205681,169.961319 
M230.924744,92.532181 
	C238.580399,84.796501 238.572845,83.548622 230.836273,77.285599 
	C230.580002,77.078133 230.352936,76.683128 230.089691,76.662407 
	C229.041611,76.579933 227.582520,76.158569 226.998840,76.676964 
	C224.114044,79.239067 221.459961,82.060905 217.998062,85.516205 
	C221.158035,88.267136 223.518478,90.616119 226.201599,92.507339 
	C227.218246,93.223938 228.978714,92.885284 230.924744,92.532181 
M216.968323,144.601944 
	C216.963287,142.778778 217.165359,140.919800 216.859238,139.148666 
	C216.721710,138.352936 215.568237,137.732803 214.875778,137.032990 
	C214.213257,137.772324 212.983444,138.504440 212.973938,139.252075 
	C212.846054,149.309464 212.888214,159.369003 212.888214,169.926239 
	C217.032059,169.926239 220.642670,170.037979 224.235611,169.835907 
	C224.992462,169.793350 225.684570,168.599426 226.406509,167.936020 
	C225.646835,167.291550 224.940674,166.187027 224.117142,166.091232 
	C221.891983,165.832336 219.616913,166.002609 216.968323,166.002609 
	C216.968323,158.772217 216.968323,152.172485 216.968323,144.601944 
M109.749207,142.718521 
	C109.748924,142.054214 109.943871,141.309052 109.708977,140.741913 
	C109.169128,139.438507 108.419983,138.221786 107.755791,136.969879 
	C107.064034,138.171829 105.793045,139.363831 105.772240,140.577286 
	C105.607414,150.192886 105.680519,159.812576 105.680519,169.330231 
	C109.020149,170.786926 109.795303,169.389297 109.770287,166.584991 
	C109.702141,158.946075 109.748253,151.306152 109.749207,142.718521 
M234.349594,164.223419 
	C234.349274,156.232300 234.423233,148.239670 234.262619,140.251770 
	C234.240417,139.147339 233.057617,138.066254 232.412125,136.974350 
	C231.666687,137.986221 230.293518,138.986267 230.274185,140.011810 
	C230.104813,148.998627 230.083313,157.992188 230.293793,166.977280 
	C230.320755,168.128296 231.927673,169.242310 232.802673,170.373459 
	C233.252777,170.093704 233.702881,169.813950 234.152969,169.534210 
	C234.218292,168.069504 234.283600,166.604813 234.349594,164.223419 
M178.590652,169.898376 
	C179.051117,168.793503 179.896744,167.693542 179.910950,166.582962 
	C180.021759,157.920563 180.056717,149.254379 179.877243,140.594299 
	C179.851944,139.374069 178.537872,138.180527 177.820328,136.974640 
	C177.141830,138.212372 175.901108,139.438644 175.875565,140.689713 
	C175.702148,149.183365 175.704742,157.683853 175.872314,166.177734 
	C175.897293,167.443237 177.087799,168.685745 178.590652,169.898376 
M24.983456,49.352272 
	C24.861977,48.887413 24.740496,48.422554 24.619017,47.957695 
	C24.378611,47.954826 24.138205,47.951954 23.897799,47.949085 
	C23.897799,51.475163 23.897799,55.001244 23.897799,59.109852 
	C19.894814,59.109852 16.516367,59.109852 13.137922,59.109852 
	C13.156672,59.322388 13.175424,59.534924 13.194174,59.747459 
	C16.919731,59.747459 20.645288,59.747459 24.989840,59.747459 
	C24.989840,56.363117 24.989840,53.264614 24.983456,49.352272 
z"/>
<path fill="#FB8383" opacity="1.000000" stroke="none" 
	d="
M156.169678,109.986061 
	C153.726028,107.418556 151.282379,104.851044 148.954330,101.548653 
	C149.713287,97.613350 150.928818,94.408203 150.902435,91.213310 
	C150.778305,76.178223 150.313431,61.145950 149.970154,46.112675 
	C152.910233,49.137905 155.850311,52.163132 158.911865,55.938278 
	C159.355408,72.401962 159.705032,88.115242 159.973648,103.829918 
	C160.020798,106.588753 160.426910,109.788040 156.169678,109.986061 
z"/>
<path fill="#FB7777" opacity="1.000000" stroke="none" 
	d="
M141.985443,95.054504 
	C138.841888,91.799629 135.698349,88.544746 132.326782,84.715958 
	C132.732681,76.197159 133.286240,68.244644 134.038757,60.311001 
	C134.354965,56.977219 133.045563,54.988167 129.969589,53.985374 
	C133.727631,49.968151 137.485687,45.950928 141.631836,42.223236 
	C142.679962,45.322868 143.851639,48.122498 143.909409,50.944927 
	C144.132507,61.843075 144.170502,72.752617 143.907516,83.648987 
	C143.815445,87.464058 142.656952,91.253403 141.985443,95.054504 
z"/>
<path fill="#FC8A8A" opacity="1.000000" stroke="none" 
	d="
M156.281982,110.290642 
	C160.426910,109.788040 160.020798,106.588753 159.973648,103.829918 
	C159.705032,88.115242 159.355408,72.401962 159.065979,56.227798 
	C161.640244,58.310669 164.181854,60.853943 166.859665,64.144730 
	C167.330582,68.999275 167.903229,73.103386 167.953979,77.213928 
	C168.089279,88.169434 168.168045,99.131889 167.894836,110.082237 
	C167.815659,113.255341 166.471527,116.396889 165.707275,119.552902 
	C162.602936,116.567009 159.498611,113.581116 156.281982,110.290642 
z"/>
<path fill="#FC9191" opacity="1.000000" stroke="none" 
	d="
M165.812515,119.850388 
	C166.471527,116.396889 167.815659,113.255341 167.894836,110.082237 
	C168.168045,99.131889 168.089279,88.169434 167.953979,77.213928 
	C167.903229,73.103386 167.330582,68.999275 166.997589,64.446976 
	C169.562943,66.521736 172.126556,69.041756 174.832474,72.304680 
	C175.316513,79.822670 175.930786,86.597824 175.928955,93.372810 
	C175.926804,101.311623 175.388412,109.250298 175.082611,117.189026 
	C173.237930,119.206947 171.393250,121.224854 169.212173,123.610733 
	C167.859283,122.188667 166.888519,121.168274 165.812515,119.850388 
z"/>
<path fill="#B11F1F" opacity="1.000000" stroke="none" 
	d="
M276.719849,165.572479 
	C276.719177,155.978561 276.719177,146.835922 276.719177,137.041214 
	C286.971893,137.366165 282.346710,147.814468 287.641907,151.376907 
	C287.641907,146.792908 287.641907,142.340012 287.641907,137.808640 
	C290.423706,136.700089 292.123016,136.573151 292.110382,139.990433 
	C292.074158,149.795258 292.097626,159.600311 292.097626,169.321823 
	C288.834442,170.727448 287.603180,169.432159 286.831360,166.686462 
	C285.277557,161.158829 283.491974,155.696365 280.719299,150.362915 
	C280.719299,155.547241 280.834747,160.735916 280.640686,165.912964 
	C280.590149,167.261459 279.574402,168.573761 279.001923,169.902679 
	C278.241455,168.609711 277.480988,167.316727 276.719849,165.572479 
z"/>
<path fill="#FB7C7C" opacity="1.000000" stroke="none" 
	d="
M142.105011,95.364700 
	C142.656952,91.253403 143.815445,87.464058 143.907516,83.648987 
	C144.170502,72.752617 144.132507,61.843075 143.909409,50.944927 
	C143.851639,48.122498 142.679962,45.322868 141.950760,42.098663 
	C143.111771,41.514816 144.703842,40.782799 145.496475,41.292934 
	C147.121979,42.339119 148.318863,44.051270 149.831177,45.800961 
	C150.313431,61.145950 150.778305,76.178223 150.902435,91.213310 
	C150.928818,94.408203 149.713287,97.613350 148.901093,101.226059 
	C146.563049,99.650528 144.393814,97.662712 142.105011,95.364700 
z"/>
<path fill="#B52929" opacity="1.000000" stroke="none" 
	d="
M146.721008,152.805237 
	C146.650467,148.499084 146.461533,144.189087 146.601501,139.889801 
	C146.632385,138.941162 147.828461,138.030472 148.487976,137.102310 
	C149.220627,137.954773 150.577469,138.797791 150.590515,139.661118 
	C150.740280,149.575882 150.685928,159.493729 150.685928,169.270828 
	C147.557220,170.673553 145.979660,169.833572 145.193420,166.937622 
	C144.066345,162.786255 142.756638,158.684448 141.364258,153.844299 
	C140.742859,151.580475 140.282120,150.033875 139.821381,148.487259 
	C139.473724,148.581314 139.126053,148.675385 138.778381,148.769440 
	C138.921692,150.543182 139.065002,152.316940 139.208313,154.090683 
	C139.179260,158.407394 139.257950,162.729568 139.040024,167.036728 
	C138.989944,168.026367 137.920761,168.964447 137.320587,169.926254 
	C136.560425,169.108963 135.151672,168.301666 135.138901,167.472855 
	C134.985931,157.545639 135.040100,147.615219 135.040100,137.767807 
	C138.743195,136.264175 140.743240,137.021225 141.627426,140.678604 
	C142.561874,144.543976 143.839798,148.326294 144.981812,152.897659 
	C145.442902,154.874847 145.889862,156.099274 146.336823,157.323715 
	C146.625183,157.240723 146.913559,157.157745 147.201920,157.074753 
	C147.041611,155.651581 146.881302,154.228409 146.721008,152.805237 
z"/>
<path fill="#FC9090" opacity="1.000000" stroke="none" 
	d="
M170.978363,27.011019 
	C173.298416,29.381918 175.618454,31.752817 177.992233,34.912773 
	C178.054260,38.509800 178.062576,41.317768 178.070892,44.125736 
	C175.447037,47.470898 172.823212,50.816067 169.925842,54.509968 
	C164.732697,49.237991 160.865433,45.633652 157.474777,41.626068 
	C156.702682,40.713497 156.947006,37.882545 157.812988,36.836597 
	C160.659439,33.398575 164.006561,30.375078 167.845184,27.064837 
	C169.345474,26.961906 170.161926,26.986462 170.978363,27.011019 
z"/>
<path fill="#FD9E9E" opacity="1.000000" stroke="none" 
	d="
M188.718155,81.127319 
	C184.431152,74.834457 180.043182,68.605553 175.971512,62.176315 
	C175.394348,61.264946 175.858170,58.913250 176.690414,58.023258 
	C180.654388,53.784206 184.912216,49.819942 189.577499,46.030533 
	C190.724899,48.158829 191.862503,50.002052 191.908768,51.872288 
	C192.110046,60.005787 192.171997,68.154350 191.844086,76.279671 
	C191.777298,77.934906 189.809586,79.513435 188.718155,81.127319 
z"/>
<path fill="#B32424" opacity="1.000000" stroke="none" 
	d="
M208.363953,168.532089 
	C204.798767,170.144699 204.638351,170.165115 204.127029,166.148651 
	C203.746872,163.162476 202.948868,160.544540 199.435135,161.747772 
	C198.023911,162.231003 196.784439,164.597244 196.382080,166.320190 
	C195.783890,168.881897 195.445160,170.899277 191.792877,169.316696 
	C192.859558,161.648438 194.043686,153.973602 194.920609,146.263809 
	C195.150101,144.246292 194.168015,142.110428 194.246429,140.048096 
	C194.285965,139.008575 195.333191,137.264984 196.133759,137.135910 
	C198.541962,136.747620 201.052811,136.995926 204.064682,136.995926 
	C205.527222,147.543900 206.954941,157.840637 208.363953,168.532089 
M197.882965,154.521210 
	C197.791733,158.875702 200.433624,156.958206 202.844650,156.801193 
	C202.125046,151.804413 201.456161,147.159790 200.787277,142.515167 
	C200.396774,142.528473 200.006256,142.541779 199.615753,142.555069 
	C199.068329,146.245117 198.520889,149.935150 197.882965,154.521210 
z"/>
<path fill="#FDA9A9" opacity="1.000000" stroke="none" 
	d="
M197.000366,41.998688 
	C199.655716,44.708836 202.311050,47.418987 205.000305,50.934067 
	C205.028976,63.173344 205.023758,74.607697 205.018524,86.042046 
	C202.834183,88.195473 200.649841,90.348900 197.924469,92.755768 
	C196.917801,93.010994 196.452194,93.012787 195.993286,93.007294 
	C196.000000,93.000000 195.985336,93.012825 195.992218,92.639107 
	C195.997025,91.518974 195.994949,90.772552 196.149414,89.672440 
	C196.870651,86.947678 197.943970,84.570557 197.915878,82.206535 
	C197.756516,68.802185 197.333588,55.400970 197.000366,41.998688 
z"/>
<path fill="#B22222" opacity="1.000000" stroke="none" 
	d="
M46.770119,164.784485 
	C46.534180,157.790970 46.398884,151.163574 46.444008,144.537415 
	C46.475494,139.913132 50.117085,136.446426 54.592346,136.510147 
	C58.789604,136.569901 62.204781,140.020844 62.273991,144.450058 
	C62.351681,149.422043 62.029202,154.414078 62.366898,159.364212 
	C62.681595,163.977249 61.483162,167.928085 57.263603,169.671906 
	C52.814625,171.510559 49.329777,169.099014 46.770119,164.784485 
M57.533688,142.337646 
	C53.369827,139.704910 50.727367,140.705658 50.509277,145.300613 
	C50.257706,150.601089 50.128056,155.953796 50.636040,161.217178 
	C50.800507,162.921295 53.143166,164.415192 54.489460,166.005249 
	C55.750938,164.344955 57.992065,162.743546 58.096004,161.013702 
	C58.452747,155.076508 58.060741,149.094330 57.533688,142.337646 
z"/>
<path fill="#B32424" opacity="1.000000" stroke="none" 
	d="
M259.665680,142.507935 
	C259.995911,140.622971 260.257568,139.162750 260.581482,137.355225 
	C262.921844,137.355225 265.160248,137.355225 268.218811,137.355225 
	C269.714355,147.733719 271.244324,158.351196 272.774292,168.968658 
	C272.455566,169.365997 272.136810,169.763321 271.818085,170.160645 
	C270.686279,169.295609 269.203247,168.649063 268.499481,167.517746 
	C267.230133,165.477203 269.303314,161.535324 264.479431,161.481750 
	C259.788330,161.429657 261.278412,165.106140 260.226593,167.355713 
	C259.665253,168.556335 258.370605,169.414108 257.406921,170.426620 
	C256.912445,170.114059 256.417969,169.801514 255.923508,169.488968 
	C257.148041,160.636871 258.372589,151.784790 259.665680,142.507935 
M262.371643,150.962524 
	C262.221191,152.889679 262.070709,154.816833 261.903778,156.954956 
	C263.773438,156.954956 265.149017,156.954956 267.111725,156.954956 
	C266.296844,151.676453 265.545013,146.806702 264.793213,141.936951 
	C264.484924,141.934250 264.176666,141.931534 263.868378,141.928833 
	C263.427124,144.652847 262.985870,147.376862 262.371643,150.962524 
z"/>
<path fill="#B32525" opacity="1.000000" stroke="none" 
	d="
M116.621696,157.630493 
	C115.636772,150.652679 114.722198,144.104034 113.807632,137.555405 
	C114.324013,137.218658 114.840401,136.881897 115.356789,136.545151 
	C116.330276,137.747986 117.915939,138.834030 118.171509,140.173813 
	C119.291878,146.047104 120.009682,151.996521 120.916679,157.911728 
	C121.103386,159.129333 121.475121,160.318558 122.847137,161.496765 
	C124.062408,154.337189 125.176537,147.157608 126.585609,140.036392 
	C126.841080,138.745331 128.304932,137.693375 129.210922,136.531036 
	C129.779846,136.838989 130.348770,137.146957 130.917679,137.454910 
	C129.398514,148.074295 127.879333,158.693695 126.313210,169.641266 
	C123.723602,169.641266 121.327499,169.641266 118.490799,169.641266 
	C117.901382,165.846207 117.296715,161.952942 116.621696,157.630493 
z"/>
<path fill="#FA6E6E" opacity="1.000000" stroke="none" 
	d="
M129.674347,54.136024 
	C133.045563,54.988167 134.354965,56.977219 134.038757,60.311001 
	C133.286240,68.244644 132.732681,76.197159 132.046082,84.523094 
	C126.417007,79.765823 120.840599,74.627502 114.855827,69.112900 
	C120.383133,63.470295 124.881111,58.878487 129.674347,54.136024 
z"/>
<path fill="#B32323" opacity="1.000000" stroke="none" 
	d="
M311.740845,140.529694 
	C312.259552,142.078857 312.830017,143.379547 312.692230,144.600327 
	C312.599609,145.421402 311.624023,146.377335 310.802917,146.770370 
	C310.457428,146.935730 309.421082,145.872955 308.822144,145.249908 
	C307.484436,143.858383 306.224213,142.392334 304.932404,140.956635 
	C303.892334,141.914307 301.909180,142.973846 301.999451,143.809418 
	C302.218719,145.839020 302.994812,148.111862 304.301300,149.642471 
	C305.873505,151.484360 308.128723,152.824905 310.261658,154.090164 
	C315.263428,157.057159 313.500397,161.619308 312.348206,165.296738 
	C311.297272,168.651062 308.190338,170.628815 304.045471,170.054108 
	C300.064209,169.502075 296.668457,165.186768 297.540894,161.132751 
	C297.708801,160.352615 298.546844,159.716705 299.075714,159.014252 
	C299.847107,159.639053 300.753967,160.154953 301.361969,160.911133 
	C302.667755,162.535202 303.819489,164.283142 305.034271,165.980377 
	C306.278625,165.063202 308.636108,164.036194 308.558472,163.249466 
	C308.326447,160.898239 307.601532,158.291199 306.199310,156.444443 
	C304.760101,154.548904 302.350464,153.346924 300.267029,151.992935 
	C296.062317,149.260376 297.186554,144.976898 298.196320,141.697678 
	C299.182770,138.494141 302.193909,135.673538 306.328461,136.864700 
	C308.217407,137.408920 309.780365,139.084656 311.740845,140.529694 
z"/>
<path fill="#FDA3A3" opacity="1.000000" stroke="none" 
	d="
M196.850540,41.702209 
	C197.333588,55.400970 197.756516,68.802185 197.915878,82.206535 
	C197.943970,84.570557 196.870651,86.947678 195.839935,89.528931 
	C193.901932,89.158333 192.429977,88.577538 190.657379,87.962540 
	C189.902466,87.359200 189.448212,86.790070 188.993958,86.220947 
	C188.967087,84.751450 188.940216,83.281944 188.815750,81.469879 
	C189.809586,79.513435 191.777298,77.934906 191.844086,76.279671 
	C192.171997,68.154350 192.110046,60.005787 191.908768,51.872288 
	C191.862503,50.002052 190.724899,48.158829 189.897797,45.903515 
	C191.705704,43.571323 191.928726,38.606468 196.850540,41.702209 
z"/>
<path fill="#FC9898" opacity="1.000000" stroke="none" 
	d="
M175.376160,117.021332 
	C175.388412,109.250298 175.926804,101.311623 175.928955,93.372810 
	C175.930786,86.597824 175.316513,79.822670 174.953949,72.619949 
	C177.878662,75.218788 180.824173,78.245270 183.893112,82.021713 
	C184.012207,91.183998 184.007889,99.596313 184.003555,108.008621 
	C181.225601,110.956963 178.447662,113.905304 175.376160,117.021332 
z"/>
<path fill="#B32323" opacity="1.000000" stroke="none" 
	d="
M67.776718,165.509552 
	C67.776443,155.959595 67.776443,146.861649 67.776443,137.864594 
	C75.912888,135.664795 81.667412,137.733627 82.834900,143.053802 
	C85.062820,153.206345 81.978142,158.204910 71.959435,159.888382 
	C71.959435,163.017456 71.959435,166.249268 71.959435,169.325455 
	C67.694885,170.902344 67.696678,168.472641 67.776718,165.509552 
M75.923508,154.977951 
	C80.541191,152.149872 79.099800,147.654602 78.345871,143.866806 
	C78.053864,142.399719 74.958542,141.490631 73.140305,140.327332 
	C72.714188,140.695526 72.288063,141.063721 71.861946,141.431931 
	C71.861946,145.188766 71.659691,148.964523 72.007988,152.688782 
	C72.092224,153.589523 73.994995,154.320206 75.923508,154.977951 
z"/>
<path fill="#FEB0B0" opacity="1.000000" stroke="none" 
	d="
M205.318024,85.894684 
	C205.023758,74.607697 205.028976,63.173344 205.070587,51.260216 
	C208.313721,53.972397 211.520477,57.163357 214.866531,61.121307 
	C214.990082,66.558647 214.974335,71.228989 214.958603,75.899338 
	C211.844910,79.182007 208.731216,82.464668 205.318024,85.894684 
z"/>
<path fill="#B42828" opacity="1.000000" stroke="none" 
	d="
M243.786316,142.088165 
	C244.707138,144.921326 245.524506,147.365311 246.458847,150.159027 
	C250.860107,146.410767 248.314865,138.473602 254.363541,136.732513 
	C254.878479,137.050430 255.393402,137.368347 255.908340,137.686249 
	C254.877274,140.782623 253.987793,143.935196 252.785767,146.963715 
	C250.253983,153.342560 248.360992,159.783508 248.936447,166.789078 
	C249.016983,167.769348 247.644028,168.869019 246.943893,169.913422 
	C246.281265,169.181793 244.975937,168.374268 245.052017,167.729858 
	C246.283188,157.303253 241.276672,148.381912 238.321640,138.969620 
	C238.186295,138.538498 238.304260,138.027847 238.304260,137.452011 
	C242.711472,135.627701 242.630356,139.391129 243.786316,142.088165 
z"/>
<path fill="#B42828" opacity="1.000000" stroke="none" 
	d="
M33.022102,136.944534 
	C36.305984,136.944534 39.110435,136.944534 42.822323,136.944534 
	C42.474686,139.501038 42.184193,141.637283 41.893700,143.773529 
	C40.312870,142.863388 38.732037,141.953232 36.409431,140.616013 
	C36.225765,142.308502 35.937489,143.783493 35.927185,145.260422 
	C35.877354,152.402252 35.848354,159.545197 35.926346,166.686493 
	C35.959003,169.676697 34.871078,170.668594 31.313698,169.133804 
	C31.313698,159.940948 31.313698,150.478577 31.313698,139.847046 
	C28.974270,141.977448 27.650341,143.183075 25.400703,145.231720 
	C25.400703,141.802872 25.400703,139.745911 25.400703,136.944534 
	C27.700138,136.944534 30.121407,136.944534 33.022102,136.944534 
z"/>
<path fill="#B42828" opacity="1.000000" stroke="none" 
	d="
M167.047028,152.308975 
	C166.300339,157.587448 165.749374,162.494934 165.004654,167.372833 
	C164.866150,168.279999 163.948395,169.068207 163.390274,169.911331 
	C162.592987,169.299469 161.049545,168.602341 161.108292,168.088287 
	C162.356964,157.161453 157.144089,147.703751 154.005981,137.626678 
	C158.997421,135.610504 158.933380,139.592972 159.898041,142.060669 
	C160.890259,144.598892 161.660736,147.223801 162.585693,149.982086 
	C167.180984,146.398361 164.323425,138.456833 172.565536,136.302078 
	C170.477341,142.356186 168.826599,147.141968 167.047028,152.308975 
z"/>
<path fill="#FA6969" opacity="1.000000" stroke="none" 
	d="
M120.063507,84.908356 
	C117.276215,88.349022 114.550903,91.429024 111.527802,94.845573 
	C108.095390,91.155701 105.099579,87.935173 101.743698,84.327568 
	C104.655602,81.285408 107.600075,78.209221 111.178818,74.470398 
	C114.313705,78.001457 117.219604,81.274574 120.063507,84.908356 
z"/>
<path fill="#B52B2B" opacity="1.000000" stroke="none" 
	d="
M97.750008,169.961578 
	C94.493958,169.961823 91.693581,169.961823 88.232933,169.961823 
	C88.232933,159.364197 88.166359,149.122818 88.368950,138.886734 
	C88.383919,138.130264 90.336327,137.412125 92.369659,135.989243 
	C92.369659,146.759232 92.369659,156.024933 92.369659,165.960236 
	C94.560394,165.960236 96.379852,165.709030 98.086105,166.040558 
	C99.426857,166.301056 100.627785,167.281250 101.890823,167.941757 
	C100.662445,168.614944 99.434059,169.288132 97.750008,169.961578 
z"/>
<path fill="#FFC3C3" opacity="1.000000" stroke="none" 
	d="
M230.662445,92.779907 
	C228.978714,92.885284 227.218246,93.223938 226.201599,92.507339 
	C223.518478,90.616119 221.158035,88.267136 217.998062,85.516205 
	C221.459961,82.060905 224.114044,79.239067 226.998840,76.676964 
	C227.582520,76.158569 229.041611,76.579933 230.089691,76.662407 
	C230.352936,76.683128 230.580002,77.078133 230.836273,77.285599 
	C238.572845,83.548622 238.580399,84.796501 230.662445,92.779907 
z"/>
<path fill="#B22121" opacity="1.000000" stroke="none" 
	d="
M216.968323,145.087341 
	C216.968323,152.172485 216.968323,158.772217 216.968323,166.002609 
	C219.616913,166.002609 221.891983,165.832336 224.117142,166.091232 
	C224.940674,166.187027 225.646835,167.291550 226.406509,167.936020 
	C225.684570,168.599426 224.992462,169.793350 224.235611,169.835907 
	C220.642670,170.037979 217.032059,169.926239 212.888214,169.926239 
	C212.888214,159.369003 212.846054,149.309464 212.973938,139.252075 
	C212.983444,138.504440 214.213257,137.772324 214.875778,137.032990 
	C215.568237,137.732803 216.721710,138.352936 216.859238,139.148666 
	C217.165359,140.919800 216.963287,142.778778 216.968323,145.087341 
z"/>
<path fill="#B62929" opacity="1.000000" stroke="none" 
	d="
M109.749146,143.192566 
	C109.748253,151.306152 109.702141,158.946075 109.770287,166.584991 
	C109.795303,169.389297 109.020149,170.786926 105.680519,169.330231 
	C105.680519,159.812576 105.607414,150.192886 105.772240,140.577286 
	C105.793045,139.363831 107.064034,138.171829 107.755783,136.969879 
	C108.419983,138.221786 109.169128,139.438507 109.708977,140.741913 
	C109.943871,141.309052 109.748924,142.054214 109.749146,143.192566 
z"/>
<path fill="#B62929" opacity="1.000000" stroke="none" 
	d="
M234.349258,164.681763 
	C234.283600,166.604813 234.218292,168.069504 234.152969,169.534210 
	C233.702881,169.813950 233.252777,170.093704 232.802673,170.373459 
	C231.927673,169.242310 230.320755,168.128296 230.293793,166.977280 
	C230.083313,157.992188 230.104813,148.998627 230.274185,140.011810 
	C230.293518,138.986267 231.666687,137.986221 232.412125,136.974350 
	C233.057617,138.066254 234.240417,139.147339 234.262619,140.251770 
	C234.423233,148.239670 234.349274,156.232300 234.349258,164.681763 
z"/>
<path fill="#B52B2B" opacity="1.000000" stroke="none" 
	d="
M178.164886,169.918625 
	C177.087799,168.685745 175.897293,167.443237 175.872314,166.177734 
	C175.704742,157.683853 175.702148,149.183365 175.875565,140.689713 
	C175.901108,139.438644 177.141830,138.212372 177.820328,136.974640 
	C178.537872,138.180527 179.851944,139.374069 179.877243,140.594299 
	C180.056717,149.254379 180.021759,157.920563 179.910950,166.582962 
	C179.896744,167.693542 179.051117,168.793503 178.164886,169.918625 
z"/>
<path fill="#FD9F9F" opacity="1.000000" stroke="none" 
	d="
M184.304901,107.867111 
	C184.007889,99.596313 184.012207,91.183998 184.037704,82.319206 
	C185.526489,83.182266 186.994095,84.497803 188.727829,86.017136 
	C189.448212,86.790070 189.902466,87.359200 190.801468,88.271225 
	C192.825943,90.080353 194.405640,91.546585 195.985336,93.012817 
	C195.985336,93.012825 196.000000,93.000000 195.990723,93.363678 
	C195.963287,94.438004 195.945114,95.148643 195.926941,95.859283 
	C192.153397,99.814720 188.379822,103.770164 184.304901,107.867111 
z"/>
<path fill="#FEBABA" opacity="1.000000" stroke="none" 
	d="
M215.270020,75.780899 
	C214.974335,71.228989 214.990082,66.558647 215.016434,61.416882 
	C217.399155,63.180378 219.771286,65.415291 222.531906,68.016228 
	C219.968124,70.836647 217.774796,73.249550 215.270020,75.780899 
z"/>
<path fill="#FDA3A3" opacity="1.000000" stroke="none" 
	d="
M178.371445,43.974396 
	C178.062576,41.317768 178.054260,38.509800 178.091339,35.227158 
	C179.747238,36.022850 181.357742,37.293205 184.920654,40.103596 
	C182.332428,41.644211 180.502213,42.733631 178.371445,43.974396 
z"/>
<path fill="#D4D4D4" opacity="1.000000" stroke="none" 
	d="
M24.986649,49.759193 
	C24.989840,53.264614 24.989840,56.363117 24.989840,59.747459 
	C20.645288,59.747459 16.919731,59.747459 13.194174,59.747459 
	C13.175424,59.534924 13.156672,59.322388 13.137922,59.109852 
	C16.516367,59.109852 19.894814,59.109852 23.897799,59.109852 
	C23.897799,55.001244 23.897799,51.475163 23.897799,47.949085 
	C24.138205,47.951954 24.378611,47.954826 24.619017,47.957695 
	C24.740496,48.422554 24.861977,48.887413 24.986649,49.759193 
z"/>
<path fill="#E6B8B8" opacity="1.000000" stroke="none" 
	d="
M139.533264,154.053192 
	C139.065002,152.316940 138.921692,150.543182 138.778381,148.769440 
	C139.126053,148.675385 139.473724,148.581314 139.821381,148.487259 
	C140.282120,150.033875 140.742859,151.580475 141.180634,153.510468 
	C140.724503,153.934479 140.291367,153.975098 139.533264,154.053192 
z"/>
<path fill="#D99393" opacity="1.000000" stroke="none" 
	d="
M146.448547,152.839905 
	C146.881302,154.228409 147.041611,155.651581 147.201920,157.074753 
	C146.913559,157.157745 146.625183,157.240723 146.336823,157.323715 
	C145.889862,156.099274 145.442902,154.874847 145.044708,153.286072 
	C145.454346,152.905991 145.815201,152.890274 146.448547,152.839905 
z"/>
<path fill="#FDB5B5" opacity="1.000000" stroke="none" 
	d="
M196.228607,95.756683 
	C195.945114,95.148643 195.963287,94.438004 195.984024,93.370972 
	C196.452194,93.012787 196.917801,93.010994 197.733673,93.016739 
	C197.566071,93.900879 197.048172,94.777489 196.228607,95.756683 
z"/>
<path fill="#FDA3A3" opacity="1.000000" stroke="none" 
	d="
M170.863892,26.722424 
	C170.161926,26.986462 169.345474,26.961906 168.119446,26.886278 
	C168.723022,26.701414 169.736221,26.567621 170.863892,26.722424 
z"/>
<path fill="#F0D4D4" opacity="1.000000" stroke="none" 
	d="
M197.928223,154.073212 
	C198.520889,149.935150 199.068329,146.245117 199.615753,142.555069 
	C200.006256,142.541779 200.396774,142.528473 200.787277,142.515167 
	C201.456161,147.159790 202.125046,151.804413 202.844650,156.801193 
	C200.433624,156.958206 197.791733,158.875702 197.928223,154.073212 
z"/>
<path fill="#FDB5B5" opacity="1.000000" stroke="none" 
	d="
M195.992218,92.639099 
	C194.405640,91.546585 192.825943,90.080353 191.102142,88.305435 
	C192.429977,88.577538 193.901932,89.158333 195.683365,89.882629 
	C195.994949,90.772552 195.997025,91.518974 195.992218,92.639099 
z"/>
<path fill="#F8EAEA" opacity="1.000000" stroke="none" 
	d="
M57.743923,142.733459 
	C58.060741,149.094330 58.452747,155.076508 58.096004,161.013702 
	C57.992065,162.743546 55.750938,164.344955 54.489464,166.005249 
	C53.143166,164.415192 50.800507,162.921295 50.636040,161.217178 
	C50.128056,155.953796 50.257706,150.601089 50.509277,145.300613 
	C50.727367,140.705658 53.369827,139.704910 57.743923,142.733459 
z"/>
<path fill="#EFD1D1" opacity="1.000000" stroke="none" 
	d="
M262.458130,150.531708 
	C262.985870,147.376862 263.427124,144.652847 263.868378,141.928833 
	C264.176666,141.931534 264.484924,141.934250 264.793213,141.936951 
	C265.545013,146.806702 266.296844,151.676453 267.111725,156.954956 
	C265.149017,156.954956 263.773438,156.954956 261.903778,156.954956 
	C262.070709,154.816833 262.221191,152.889679 262.458130,150.531708 
z"/>
<path fill="#F8ECEC" opacity="1.000000" stroke="none" 
	d="
M75.492516,155.053528 
	C73.994995,154.320206 72.092224,153.589523 72.007988,152.688782 
	C71.659691,148.964523 71.861946,145.188766 71.861946,141.431931 
	C72.288063,141.063721 72.714188,140.695526 73.140305,140.327332 
	C74.958542,141.490631 78.053864,142.399719 78.345871,143.866806 
	C79.099800,147.654602 80.541191,152.149872 75.492516,155.053528 
z"/>
</svg>